<?xml version="1.0" encoding="utf-8"?>
<!-- Generator: Adobe Illustrator 25.0.0, SVG Export Plug-In . SVG Version: 6.00 Build 0)  -->
<svg version="1.1" id="Layer_1" xmlns="http://www.w3.org/2000/svg" xmlns:xlink="http://www.w3.org/1999/xlink" x="0px" y="0px"
	 viewBox="0 0 1122 1122" style="enable-background:new 0 0 1122 1122;" xml:space="preserve">
<style type="text/css">
	.st0{fill:#F5F9FF;}
	.st1{fill:#FFFFFF;}
</style>
<g id="Object">
	<g>
		<polygon class="st0" points="1022.8,605.9 1022.8,431.3 996.1,440.4 996.1,605.9 		"/>
		<path class="st1" d="M862.4,535.2L563.7,636.5c-2.7,1-5.6,1.4-8.5,1.4s-5.8-0.5-8.6-1.4L248,535.2v250.5h0.4l-0.6,3.5
			c0,29.7,137.8,96.3,307.4,96.3s307-66.6,307-96.3l-0.7-3.5h1L862.4,535.2L862.4,535.2z"/>
		<polygon class="st1" points="248,485.7 555.3,589.9 862.4,485.7 996.1,440.4 1022.8,431.3 1036.8,426.6 555.3,264.4 73.7,426.6 		
			"/>
		<path class="st0" d="M977.9,646.9v101.9c0,17.4,14.1,31.5,31.5,31.5s31.5-14.1,31.5-31.5V646.9c0-8.6-3.5-16.4-9.1-22.2H987
			C981.4,630.4,977.9,638.3,977.9,646.9z"/>
		<polygon class="st0" points="983,605.9 983,624.7 987,624.7 1031.9,624.7 1035.9,624.7 1035.9,605.9 1022.8,605.9 996.1,605.9 		
			"/>
	</g>
</g>
</svg>
