<svg width="837" height="837" viewBox="0 0 837 837" fill="none" xmlns="http://www.w3.org/2000/svg">
<path d="M753.135 667.079H697.688V667.498H753.135V667.079Z" fill="#EBEBEB"/>
<path d="M554.462 671.622H539.91V672.041H554.462V671.622Z" fill="#EBEBEB"/>
<path d="M696.012 651.534H663.885V651.953H696.012V651.534Z" fill="#EBEBEB"/>
<path d="M160.121 654.347H87.8164V654.765H160.121V654.347Z" fill="#EBEBEB"/>
<path d="M185.628 654.347H175.027V654.765H185.628V654.347Z" fill="#EBEBEB"/>
<path d="M376.896 661.416H220.083V661.835H376.896V661.416Z" fill="#EBEBEB"/>
<path d="M399.083 565.477H75.8355C70.5674 565.477 66.2803 561.19 66.2803 555.922V101.545C66.2803 96.2769 70.5674 91.9897 75.8355 91.9897H399.083C404.35 91.9897 408.637 96.2769 408.637 101.545V555.922C408.637 561.19 404.35 565.477 399.083 565.477ZM75.8355 92.4099C70.7967 92.4099 66.6988 96.5079 66.6988 101.547V555.924C66.6988 560.963 70.7967 565.06 75.8355 565.06H399.083C404.12 565.06 408.218 560.963 408.218 555.924V101.545C408.218 96.5079 404.12 92.4082 399.083 92.4082L75.8355 92.4099Z" fill="#EBEBEB"/>
<path d="M761.165 565.477H437.917C432.65 565.477 428.363 561.19 428.363 555.922V101.545C428.363 96.2769 432.65 91.9897 437.917 91.9897H761.165C766.434 91.9897 770.72 96.2769 770.72 101.545V555.922C770.72 561.19 766.433 565.477 761.165 565.477ZM437.917 92.4099C432.88 92.4099 428.782 96.5079 428.782 101.547V555.924C428.782 560.963 432.88 565.06 437.917 565.06H761.165C766.203 565.06 770.301 560.963 770.301 555.924V101.545C770.301 96.5079 766.203 92.4082 761.165 92.4082L437.917 92.4099Z" fill="#EBEBEB"/>
<path d="M837 640.134H0V640.553H837V640.134Z" fill="#EBEBEB"/>
<path d="M701.277 343.152H581.265L567.479 185.575H687.492L701.277 343.152Z" fill="#F5F5F5"/>
<path d="M657.968 205.892H597.49C596.706 205.892 596.017 205.257 595.948 204.474C595.879 203.691 596.458 203.056 597.242 203.056H657.72C658.504 203.056 659.193 203.691 659.262 204.474C659.329 205.257 658.75 205.892 657.968 205.892Z" fill="#E0E0E0"/>
<path d="M678.295 282.986H604.232C603.448 282.986 602.759 282.352 602.69 281.568C602.621 280.785 603.201 280.15 603.984 280.15H678.047C678.83 280.15 679.52 280.785 679.589 281.568C679.657 282.352 679.078 282.986 678.295 282.986Z" fill="#E0E0E0"/>
<path d="M679.016 291.222H594.441C593.657 291.222 592.968 290.588 592.899 289.805C592.83 289.021 593.41 288.387 594.193 288.387H678.769C679.552 288.387 680.242 289.021 680.31 289.805C680.379 290.588 679.8 291.222 679.016 291.222Z" fill="#E0E0E0"/>
<path d="M679.736 299.458H595.161C594.377 299.458 593.687 298.824 593.619 298.04C593.55 297.257 594.129 296.623 594.913 296.623H679.488C680.272 296.623 680.961 297.257 681.03 298.04C681.099 298.824 680.519 299.458 679.736 299.458Z" fill="#E0E0E0"/>
<path d="M680.458 307.695H595.882C595.099 307.695 594.409 307.06 594.34 306.277C594.272 305.493 594.851 304.859 595.635 304.859H680.21C680.993 304.859 681.683 305.493 681.752 306.277C681.819 307.06 681.239 307.695 680.458 307.695Z" fill="#E0E0E0"/>
<path d="M681.177 315.932H607.115C606.331 315.932 605.642 315.298 605.573 314.515C605.504 313.731 606.083 313.097 606.867 313.097H680.93C681.713 313.097 682.403 313.731 682.471 314.515C682.54 315.296 681.961 315.932 681.177 315.932Z" fill="#E0E0E0"/>
<path d="M681.899 324.168H597.324C596.54 324.168 595.851 323.534 595.782 322.75C595.713 321.967 596.292 321.333 597.076 321.333H681.651C682.435 321.333 683.124 321.967 683.193 322.75C683.26 323.534 682.683 324.168 681.899 324.168Z" fill="#E0E0E0"/>
<path d="M682.619 332.405H598.043C597.26 332.405 596.57 331.77 596.502 330.987C596.433 330.203 597.012 329.569 597.796 329.569H682.371C683.155 329.569 683.844 330.203 683.913 330.987C683.981 331.77 683.402 332.405 682.619 332.405Z" fill="#E0E0E0"/>
<path d="M651.703 215.305H605.399C604.615 215.305 603.926 214.671 603.857 213.887C603.788 213.104 604.368 212.469 605.151 212.469H651.456C652.239 212.469 652.929 213.104 652.997 213.887C653.064 214.669 652.485 215.305 651.703 215.305Z" fill="#E0E0E0"/>
<path d="M644.968 224.716H613.783C612.999 224.716 612.31 224.082 612.241 223.298C612.172 222.515 612.751 221.88 613.535 221.88H644.72C645.503 221.88 646.193 222.515 646.262 223.298C646.329 224.082 645.749 224.716 644.968 224.716Z" fill="#E0E0E0"/>
<path opacity="0.5" d="M678.508 269.206H591.097L588.162 235.659H675.573L678.508 269.206Z" fill="#E0E0E0"/>
<path d="M115.052 459.086H214.215L225.605 328.888H126.444L115.052 459.086Z" fill="#F5F5F5"/>
<path d="M150.839 345.675H200.81C201.456 345.675 202.027 345.151 202.084 344.503C202.141 343.857 201.662 343.331 201.016 343.331H151.043C150.397 343.331 149.826 343.855 149.769 344.503C149.714 345.151 150.191 345.675 150.839 345.675Z" fill="#E0E0E0"/>
<path d="M134.042 409.374H195.238C195.885 409.374 196.455 408.85 196.512 408.202C196.569 407.556 196.091 407.03 195.444 407.03H134.246C133.6 407.03 133.029 407.554 132.972 408.202C132.915 408.85 133.394 409.374 134.042 409.374Z" fill="#E0E0E0"/>
<path d="M133.446 416.18H203.327C203.973 416.18 204.544 415.656 204.601 415.008C204.658 414.362 204.179 413.836 203.533 413.836H133.65C133.004 413.836 132.433 414.36 132.376 415.008C132.321 415.654 132.8 416.18 133.446 416.18Z" fill="#E0E0E0"/>
<path d="M132.85 422.985H202.733C203.379 422.985 203.95 422.461 204.007 421.813C204.064 421.167 203.585 420.642 202.939 420.642H133.056C132.41 420.642 131.839 421.166 131.782 421.813C131.726 422.461 132.204 422.985 132.85 422.985Z" fill="#E0E0E0"/>
<path d="M132.256 429.79H202.139C202.785 429.79 203.356 429.266 203.413 428.618C203.47 427.972 202.991 427.446 202.345 427.446H132.46C131.814 427.446 131.243 427.97 131.186 428.618C131.129 429.266 131.608 429.79 132.256 429.79Z" fill="#E0E0E0"/>
<path d="M131.66 436.597H192.856C193.503 436.597 194.073 436.073 194.13 435.425C194.187 434.779 193.708 434.253 193.062 434.253H131.864C131.218 434.253 130.647 434.777 130.59 435.425C130.535 436.073 131.012 436.597 131.66 436.597Z" fill="#E0E0E0"/>
<path d="M131.064 443.401H200.947C201.593 443.401 202.164 442.877 202.221 442.229C202.277 441.583 201.799 441.058 201.153 441.058H131.27C130.624 441.058 130.053 441.582 129.996 442.229C129.939 442.877 130.418 443.401 131.064 443.401Z" fill="#E0E0E0"/>
<path d="M130.47 450.207H200.351C200.997 450.207 201.568 449.683 201.625 449.036C201.682 448.389 201.203 447.864 200.557 447.864H130.674C130.028 447.864 129.457 448.388 129.4 449.036C129.343 449.682 129.822 450.207 130.47 450.207Z" fill="#E0E0E0"/>
<path d="M156.015 353.451H194.274C194.921 353.451 195.491 352.927 195.548 352.279C195.605 351.633 195.127 351.107 194.48 351.107H156.219C155.573 351.107 155.002 351.631 154.946 352.279C154.889 352.927 155.367 353.451 156.015 353.451Z" fill="#E0E0E0"/>
<path d="M161.579 361.228H187.346C187.992 361.228 188.563 360.704 188.62 360.056C188.676 359.41 188.198 358.884 187.552 358.884H161.785C161.139 358.884 160.568 359.408 160.511 360.056C160.455 360.704 160.933 361.228 161.579 361.228Z" fill="#E0E0E0"/>
<path opacity="0.5" d="M133.866 397.989H206.091L208.517 370.271H136.292L133.866 397.989Z" fill="#E0E0E0"/>
<path d="M336.467 310.323H464.339L479.028 142.427H351.157L336.467 310.323Z" fill="#FAFAFA"/>
<path d="M382.614 164.076H447.053C447.887 164.076 448.623 163.399 448.695 162.566C448.769 161.732 448.151 161.056 447.318 161.056H382.879C382.045 161.056 381.308 161.732 381.236 162.566C381.163 163.399 381.78 164.076 382.614 164.076Z" fill="#E6E6E6"/>
<path d="M360.954 246.217H439.867C440.7 246.217 441.437 245.541 441.509 244.707C441.583 243.874 440.965 243.197 440.131 243.197H361.219C360.385 243.197 359.649 243.874 359.577 244.707C359.503 245.541 360.121 246.217 360.954 246.217Z" fill="#E6E6E6"/>
<path d="M360.186 254.992H450.301C451.134 254.992 451.871 254.316 451.943 253.482C452.017 252.648 451.399 251.972 450.565 251.972H360.45C359.617 251.972 358.88 252.648 358.808 253.482C358.735 254.316 359.352 254.992 360.186 254.992Z" fill="#E6E6E6"/>
<path d="M359.419 263.769H449.534C450.368 263.769 451.104 263.093 451.176 262.259C451.25 261.425 450.632 260.749 449.799 260.749H359.684C358.85 260.749 358.114 261.425 358.042 262.259C357.968 263.093 358.584 263.769 359.419 263.769Z" fill="#E6E6E6"/>
<path d="M358.651 272.544H448.766C449.599 272.544 450.336 271.868 450.408 271.034C450.481 270.201 449.864 269.524 449.03 269.524H358.917C358.083 269.524 357.347 270.201 357.275 271.034C357.199 271.868 357.817 272.544 358.651 272.544Z" fill="#E6E6E6"/>
<path d="M357.883 281.321H436.795C437.629 281.321 438.365 280.644 438.437 279.811C438.511 278.977 437.893 278.301 437.06 278.301H358.147C357.314 278.301 356.577 278.977 356.505 279.811C356.431 280.644 357.049 281.321 357.883 281.321Z" fill="#E6E6E6"/>
<path d="M357.116 290.096H447.231C448.065 290.096 448.801 289.42 448.873 288.586C448.947 287.752 448.329 287.076 447.495 287.076H357.381C356.547 287.076 355.81 287.752 355.738 288.586C355.665 289.42 356.281 290.096 357.116 290.096Z" fill="#E6E6E6"/>
<path d="M356.348 298.873H446.462C447.296 298.873 448.033 298.197 448.104 297.363C448.176 296.529 447.56 295.853 446.727 295.853H356.612C355.778 295.853 355.042 296.529 354.97 297.363C354.896 298.195 355.514 298.873 356.348 298.873Z" fill="#E6E6E6"/>
<path d="M389.288 174.104H438.625C439.458 174.104 440.195 173.428 440.267 172.594C440.34 171.761 439.723 171.084 438.889 171.084H389.553C388.719 171.084 387.983 171.761 387.911 172.594C387.837 173.428 388.455 174.104 389.288 174.104Z" fill="#E6E6E6"/>
<path d="M396.467 184.132H429.692C430.526 184.132 431.262 183.455 431.334 182.622C431.408 181.788 430.79 181.112 429.957 181.112H396.729C395.896 181.112 395.159 181.788 395.087 182.622C395.015 183.455 395.631 184.132 396.467 184.132Z" fill="#E6E6E6"/>
<path opacity="0.5" d="M360.729 231.536H453.863L456.99 195.792H363.856L360.729 231.536Z" fill="#F0F0F0"/>
<path d="M707.873 437.1C707.43 442.164 692.409 444.986 674.323 443.404C656.237 441.822 641.934 436.434 642.376 431.37L644.311 409.253L709.808 414.983L707.873 437.1Z" fill="#EBEBEB"/>
<path opacity="0.6" d="M643.769 415.443C646.268 420.03 659.534 424.501 675.851 425.928C692.167 427.356 706.01 425.256 709.265 421.173L709.808 414.983L644.311 409.253L643.769 415.443Z" fill="#E0E0E0"/>
<path d="M675.682 423.688L622.988 402.276C621.9 401.834 621.983 400.267 623.112 399.942L679.084 383.877C679.378 383.793 679.691 383.82 679.967 383.954L732.3 409.494C733.355 410.01 733.165 411.566 732.017 411.813L676.407 423.75C676.164 423.803 675.911 423.782 675.682 423.688Z" fill="#EBEBEB"/>
<path d="M234.986 523.457H164.259V534.338H234.986V523.457Z" fill="#F0F0F0"/>
<path d="M166.594 529.734H232.634C235.657 529.734 238.108 532.185 238.108 535.208V641.892H161.137V535.208C161.137 532.185 163.588 529.734 166.611 529.734H166.594Z" fill="#E6E6E6"/>
<path d="M167.164 510.064H232.081C235.419 510.064 238.125 512.77 238.125 516.108V520.761C238.125 524.099 235.419 526.804 232.081 526.804H167.164C163.826 526.804 161.121 524.099 161.121 520.761V516.108C161.121 512.771 163.826 510.064 167.164 510.064Z" fill="#E6E6E6"/>
<path d="M248.093 641.892H212.102V636.87L248.093 633.522V641.892Z" fill="#F5F5F5"/>
<path d="M418.5 714.825C597.755 714.825 743.07 706.339 743.07 695.87C743.07 685.402 597.755 676.916 418.5 676.916C239.245 676.916 93.9297 685.402 93.9297 695.87C93.9297 706.339 239.245 714.825 418.5 714.825Z" fill="#F5F5F5"/>
<path d="M324.94 223.658L307.233 426.049L161.461 413.297L173.333 427.444L319.105 440.196L336.811 237.805L324.94 223.658Z" fill="#263238"/>
<path opacity="0.5" d="M324.94 223.658L307.233 426.049L161.461 413.297L173.333 427.444L319.105 440.196L336.811 237.805L324.94 223.658Z" fill="white"/>
<path d="M324.933 223.673L179.16 210.914L161.444 413.307L307.217 426.066L324.933 223.673Z" fill="#407BFF"/>
<path opacity="0.6" d="M324.933 223.673L179.16 210.914L161.444 413.307L307.217 426.066L324.933 223.673Z" fill="white"/>
<path d="M328.923 253.05C328.24 252.99 327.736 252.389 327.796 251.706L328.265 246.354C328.325 245.671 328.926 245.167 329.609 245.228C330.292 245.288 330.796 245.889 330.736 246.572L330.267 251.924C330.207 252.607 329.606 253.11 328.923 253.05Z" fill="#263238"/>
<path d="M320.106 353.836C319.423 353.776 318.919 353.175 318.979 352.492L327.067 260.057C327.127 259.374 327.728 258.87 328.411 258.931C329.092 258.991 329.598 259.592 329.537 260.273L321.45 352.708C321.39 353.391 320.789 353.897 320.106 353.836Z" fill="#263238"/>
<path d="M315.811 402.942C315.128 402.882 314.624 402.281 314.684 401.598L318.107 362.476C318.168 361.793 318.769 361.289 319.45 361.35C320.133 361.41 320.637 362.011 320.577 362.694L317.153 401.815C317.093 402.497 316.492 403.002 315.811 402.942Z" fill="#263238"/>
<path d="M314.386 419.208C313.703 419.148 313.199 418.547 313.259 417.864L313.89 410.657C313.951 409.974 314.552 409.471 315.235 409.531C315.918 409.591 316.421 410.192 316.361 410.875L315.73 418.082C315.67 418.763 315.069 419.267 314.386 419.208Z" fill="#263238"/>
<path d="M213.494 425.648L187.962 423.415C187.279 423.354 186.775 422.753 186.835 422.07C186.896 421.387 187.497 420.884 188.178 420.944L213.71 423.177C214.391 423.237 214.897 423.838 214.836 424.521C214.778 425.202 214.175 425.708 213.494 425.648Z" fill="#263238"/>
<path d="M276.083 431.123L224.611 426.62C223.928 426.56 223.424 425.959 223.484 425.276C223.545 424.595 224.146 424.089 224.829 424.149L276.301 428.652C276.984 428.713 277.488 429.314 277.427 429.997C277.367 430.678 276.766 431.184 276.083 431.123Z" fill="#263238"/>
<path d="M290.496 432.384L283.496 431.771C282.813 431.711 282.309 431.11 282.369 430.429C282.429 429.746 283.03 429.242 283.713 429.302L290.714 429.915C291.397 429.975 291.901 430.576 291.841 431.257C291.78 431.94 291.179 432.444 290.496 432.384Z" fill="#263238"/>
<g opacity="0.4">
<path d="M328.923 253.05C328.24 252.99 327.736 252.389 327.796 251.706L328.265 246.354C328.325 245.671 328.926 245.167 329.609 245.228C330.292 245.288 330.796 245.889 330.736 246.572L330.267 251.924C330.207 252.607 329.606 253.11 328.923 253.05Z" fill="white"/>
<path d="M320.106 353.836C319.423 353.776 318.919 353.175 318.979 352.492L327.067 260.057C327.127 259.374 327.728 258.87 328.411 258.931C329.092 258.991 329.598 259.592 329.537 260.273L321.45 352.708C321.39 353.391 320.789 353.897 320.106 353.836Z" fill="white"/>
<path d="M315.811 402.942C315.128 402.882 314.624 402.281 314.684 401.598L318.107 362.476C318.168 361.793 318.769 361.289 319.45 361.35C320.133 361.41 320.637 362.011 320.577 362.694L317.153 401.815C317.093 402.497 316.492 403.002 315.811 402.942Z" fill="white"/>
<path d="M314.386 419.208C313.703 419.148 313.199 418.547 313.259 417.864L313.89 410.657C313.951 409.974 314.552 409.471 315.235 409.531C315.918 409.591 316.421 410.192 316.361 410.875L315.73 418.082C315.67 418.763 315.069 419.267 314.386 419.208Z" fill="white"/>
<path d="M213.494 425.648L187.962 423.415C187.279 423.354 186.775 422.753 186.835 422.07C186.896 421.387 187.497 420.884 188.178 420.944L213.71 423.177C214.391 423.237 214.897 423.838 214.836 424.521C214.778 425.202 214.175 425.708 213.494 425.648Z" fill="white"/>
<path d="M276.083 431.123L224.611 426.62C223.928 426.56 223.424 425.959 223.484 425.276C223.545 424.595 224.146 424.089 224.829 424.149L276.301 428.652C276.984 428.713 277.488 429.314 277.427 429.997C277.367 430.678 276.766 431.184 276.083 431.123Z" fill="white"/>
<path d="M290.496 432.384L283.496 431.771C282.813 431.711 282.309 431.11 282.369 430.429C282.429 429.746 283.03 429.242 283.713 429.302L290.714 429.915C291.397 429.975 291.901 430.576 291.841 431.257C291.78 431.94 291.179 432.444 290.496 432.384Z" fill="white"/>
</g>
<path d="M186.504 295.156C181.324 295.907 165.731 293.338 165.731 293.338L162.221 333.469C162.221 333.469 178.022 333.646 182.993 335.287C184.19 335.682 187.349 337.937 187.349 337.937L191.255 293.303C191.255 293.303 187.753 294.975 186.504 295.156Z" fill="#263238"/>
<path d="M184.406 336.001C185.759 336.802 187.349 337.937 187.349 337.937L191.255 293.303C191.255 293.303 189.49 294.145 188.02 294.697L184.406 336.001Z" fill="black"/>
<path d="M187.771 340.227C186.577 340.123 185.694 339.07 185.799 337.876L189.716 293.095C189.82 291.902 190.873 291.018 192.067 291.122C193.26 291.225 194.144 292.278 194.04 293.474L190.123 338.255C190.018 339.448 188.965 340.33 187.771 340.227Z" fill="#263238"/>
<path d="M185.429 304.818L183.613 325.582L169.389 319.544C168.905 319.34 168.331 319.452 167.889 319.841C166.066 321.444 163.732 322.213 161.319 322C159.491 321.841 158.083 321.145 157.137 319.934C155.25 317.52 155.568 313.588 156.124 310.058C156.677 306.562 159.862 304.075 163.225 304.512C165.485 304.806 167.516 305.95 168.945 307.734C169.315 308.196 169.863 308.41 170.377 308.292L185.429 304.818ZM181.982 322.87L183.353 307.207L170.793 310.106C169.578 310.386 168.313 309.924 167.492 308.899C166.366 307.491 164.764 306.589 162.984 306.358C160.612 306.048 158.359 307.84 157.96 310.349C157.493 313.3 157.145 316.926 158.602 318.789C159.226 319.589 160.168 320.033 161.479 320.147C163.383 320.313 165.222 319.708 166.66 318.443C167.643 317.577 168.967 317.343 170.114 317.83L181.982 322.87Z" fill="#263238"/>
<g opacity="0.5">
<path d="M185.429 304.818L183.613 325.582L169.389 319.544C168.905 319.34 168.331 319.452 167.889 319.841C166.066 321.444 163.732 322.213 161.319 322C159.491 321.841 158.083 321.145 157.137 319.934C155.25 317.52 155.568 313.588 156.124 310.058C156.677 306.562 159.862 304.075 163.225 304.512C165.485 304.806 167.516 305.95 168.945 307.734C169.315 308.196 169.863 308.41 170.377 308.292L185.429 304.818ZM181.982 322.87L183.353 307.207L170.793 310.106C169.578 310.386 168.313 309.924 167.492 308.899C166.366 307.491 164.764 306.589 162.984 306.358C160.612 306.048 158.359 307.84 157.96 310.349C157.493 313.3 157.145 316.926 158.602 318.789C159.226 319.589 160.168 320.033 161.479 320.147C163.383 320.313 165.222 319.708 166.66 318.443C167.643 317.577 168.967 317.343 170.114 317.83L181.982 322.87Z" fill="white"/>
</g>
<path d="M226.127 238.66L222.806 238.369L222.977 236.412L232.02 237.204L231.849 239.161L228.528 238.87L227.791 247.29L225.389 247.079L226.127 238.66Z" fill="#263238"/>
<path d="M242.827 238.15L241.92 248.527L239.518 248.316L239.889 244.062L235.175 243.651L234.804 247.906L232.401 247.695L233.309 237.318L235.711 237.529L235.353 241.62L240.067 242.032L240.425 237.941L242.827 238.15Z" fill="#263238"/>
<path d="M252.583 247.517L252.414 249.444L244.379 248.741L245.286 238.364L253.129 239.05L252.96 240.977L247.504 240.5L247.307 242.753L252.125 243.175L251.96 245.043L247.143 244.621L246.932 247.022L252.583 247.517Z" fill="#263238"/>
<path d="M255.37 249.546C254.624 249.257 254.035 248.914 253.601 248.517L254.575 246.779C254.99 247.144 255.496 247.452 256.092 247.703C256.688 247.954 257.292 248.107 257.905 248.16C258.586 248.221 259.1 248.162 259.443 247.988C259.786 247.814 259.974 247.559 260.004 247.223C260.026 246.975 259.947 246.762 259.768 246.582C259.591 246.403 259.355 246.25 259.062 246.125C258.769 245.999 258.37 245.855 257.866 245.691C257.091 245.435 256.462 245.191 255.975 244.958C255.488 244.727 255.081 244.387 254.756 243.94C254.431 243.493 254.299 242.924 254.361 242.233C254.413 241.63 254.626 241.099 254.994 240.637C255.364 240.177 255.889 239.832 256.571 239.603C257.252 239.373 258.069 239.3 259.016 239.384C259.679 239.442 260.319 239.578 260.938 239.79C261.556 240.003 262.09 240.279 262.539 240.617L261.638 242.375C260.727 241.749 259.792 241.392 258.834 241.309C258.161 241.25 257.655 241.315 257.316 241.504C256.976 241.694 256.79 241.966 256.758 242.323C256.726 242.68 256.889 242.959 257.245 243.165C257.6 243.371 258.151 243.59 258.898 243.825C259.673 244.081 260.302 244.325 260.791 244.558C261.278 244.791 261.685 245.124 262.01 245.561C262.334 245.997 262.467 246.562 262.406 247.253C262.354 247.846 262.142 248.373 261.769 248.833C261.395 249.294 260.865 249.638 260.177 249.866C259.489 250.095 258.672 250.167 257.722 250.085C256.901 250.017 256.117 249.836 255.37 249.546Z" fill="#263238"/>
<path d="M264.693 240.063L267.093 240.274L266.186 250.651L263.786 250.442L264.693 240.063Z" fill="#263238"/>
<path d="M269.691 250.8C268.945 250.511 268.354 250.167 267.922 249.771L268.896 248.033C269.311 248.398 269.817 248.706 270.413 248.957C271.009 249.208 271.613 249.361 272.226 249.414C272.907 249.474 273.421 249.416 273.764 249.242C274.107 249.068 274.295 248.813 274.323 248.477C274.345 248.229 274.266 248.016 274.087 247.836C273.91 247.657 273.674 247.504 273.381 247.379C273.088 247.253 272.689 247.109 272.186 246.945C271.41 246.689 270.781 246.445 270.294 246.212C269.805 245.981 269.4 245.641 269.075 245.194C268.751 244.747 268.618 244.178 268.679 243.487C268.732 242.884 268.943 242.353 269.311 241.891C269.68 241.431 270.207 241.086 270.888 240.857C271.57 240.627 272.386 240.554 273.334 240.637C273.997 240.696 274.636 240.832 275.256 241.044C275.873 241.257 276.407 241.533 276.856 241.871L275.955 243.629C275.045 243.003 274.109 242.646 273.151 242.563C272.479 242.504 271.973 242.569 271.633 242.758C271.293 242.948 271.108 243.22 271.076 243.577C271.044 243.934 271.206 244.213 271.563 244.419C271.918 244.625 272.468 244.844 273.215 245.079C273.99 245.335 274.62 245.579 275.108 245.812C275.595 246.044 276.002 246.378 276.327 246.814C276.652 247.251 276.784 247.816 276.724 248.507C276.672 249.1 276.459 249.627 276.086 250.087C275.713 250.548 275.182 250.892 274.494 251.12C273.806 251.349 272.989 251.421 272.04 251.339C271.22 251.269 270.436 251.09 269.691 250.8Z" fill="#263238"/>
<path d="M287.426 267.093L208.569 260.195C207.546 260.106 206.788 259.204 206.878 258.179C206.967 257.156 207.869 256.398 208.894 256.488L287.749 263.387C288.772 263.476 289.53 264.378 289.44 265.402C289.351 266.425 288.449 267.182 287.426 267.093Z" fill="#263238"/>
<path d="M276.041 277.668L217.947 272.586C216.924 272.497 216.165 271.595 216.256 270.57C216.346 269.547 217.249 268.789 218.271 268.879L276.366 273.962C277.389 274.05 278.147 274.953 278.057 275.977C277.966 277 277.064 277.758 276.041 277.668Z" fill="#263238"/>
<path d="M288.938 386.995C288.877 387.678 288.276 388.182 287.593 388.122L187.388 379.355C186.705 379.295 186.201 378.694 186.261 378.011C186.322 377.328 186.922 376.824 187.605 376.884L287.811 385.651C288.492 385.711 288.996 386.312 288.938 386.995Z" fill="#263238"/>
<path d="M277.551 397.57C277.491 398.253 276.89 398.757 276.207 398.696L196.764 391.746C196.081 391.686 195.577 391.085 195.637 390.403C195.697 389.72 196.298 389.217 196.98 389.277L276.423 396.227C277.106 396.286 277.611 396.887 277.551 397.57Z" fill="#263238"/>
<path d="M256.756 345.355C266.242 337.395 267.479 323.253 259.519 313.768C251.559 304.282 237.417 303.046 227.931 311.005C218.446 318.965 217.209 333.107 225.169 342.593C233.129 352.078 247.271 353.315 256.756 345.355Z" fill="#407BFF"/>
<path d="M252.078 335.578C251.94 337.17 247.217 338.057 241.532 337.56C235.847 337.063 231.351 335.369 231.49 333.777L232.098 326.825L252.686 328.626L252.078 335.578Z" fill="#263238"/>
<path opacity="0.6" d="M231.927 328.77C232.712 330.211 236.883 331.617 242.013 332.066C247.142 332.515 251.492 331.855 252.517 330.571L252.688 328.626L232.099 326.825L231.927 328.77Z" fill="black"/>
<path d="M241.959 331.363L225.395 324.632C225.053 324.493 225.078 324.001 225.433 323.899L243.029 318.848C243.121 318.822 243.22 318.83 243.307 318.873L259.757 326.902C260.088 327.064 260.03 327.553 259.668 327.632L242.187 331.385C242.111 331.398 242.031 331.392 241.959 331.363Z" fill="#263238"/>
<path d="M530.256 486.312L506.777 434.261H451.885L460.311 482.966C460.727 485.358 459.123 487.633 456.731 488.048C456.496 488.088 456.26 488.11 456.023 488.112H431.922C430.636 488.112 429.595 489.153 429.595 490.438V493.033C429.595 494.317 430.636 495.36 431.922 495.36H528.562C529.96 495.36 531.093 494.227 531.093 492.829V490.137C531.085 488.82 530.8 487.516 530.256 486.312ZM504.837 479.881H478.484C476.767 479.884 475.299 478.647 475.011 476.954L471.033 453.979C470.702 452.059 471.989 450.234 473.909 449.903C474.11 449.867 474.314 449.851 474.519 449.851H494.449C495.834 449.851 497.091 450.659 497.665 451.92L508.054 474.895C508.854 476.678 508.056 478.772 506.273 479.571C505.821 479.773 505.332 479.879 504.837 479.881Z" fill="#263238"/>
<path opacity="0.5" d="M530.256 486.312L506.777 434.261H451.885L460.311 482.966C460.727 485.358 459.123 487.633 456.731 488.048C456.496 488.088 456.26 488.11 456.023 488.112H431.922C430.636 488.112 429.595 489.153 429.595 490.438V493.033C429.595 494.317 430.636 495.36 431.922 495.36H528.562C529.96 495.36 531.093 494.227 531.093 492.829V490.137C531.085 488.82 530.8 487.516 530.256 486.312ZM504.837 479.881H478.484C476.767 479.884 475.299 478.647 475.011 476.954L471.033 453.979C470.702 452.059 471.989 450.234 473.909 449.903C474.11 449.867 474.314 449.851 474.519 449.851H494.449C495.834 449.851 497.091 450.659 497.665 451.92L508.054 474.895C508.854 476.678 508.056 478.772 506.273 479.571C505.821 479.773 505.332 479.879 504.837 479.881Z" fill="white"/>
<path opacity="0.2" d="M504.837 479.88H478.484C476.767 479.884 475.299 478.647 475.011 476.954L471.033 453.979C470.702 452.059 471.989 450.234 473.909 449.902C474.11 449.867 474.314 449.851 474.519 449.851H494.449C495.834 449.851 497.091 450.659 497.665 451.92L508.054 474.895C508.854 476.678 508.056 478.772 506.273 479.571C505.821 479.773 505.332 479.879 504.837 479.88Z" fill="white"/>
<path d="M477.615 449.797H474.517C472.568 449.792 470.986 451.368 470.981 453.316C470.981 453.52 470.998 453.725 471.033 453.925L475.011 476.901C475.299 478.593 476.767 479.831 478.484 479.827H481.593C479.875 479.831 478.407 478.593 478.119 476.901L474.142 453.925C473.811 452.005 475.098 450.181 477.018 449.849C477.215 449.814 477.416 449.797 477.615 449.797Z" fill="#263238"/>
<path d="M533.365 486.312L509.865 434.304H506.776L530.256 486.312C530.807 487.529 531.091 488.848 531.093 490.182V492.874C531.093 494.272 529.96 495.404 528.562 495.404H531.67C533.068 495.404 534.201 494.27 534.201 492.874V490.182C534.2 488.848 533.915 487.529 533.365 486.312Z" fill="#263238"/>
<path opacity="0.2" d="M506.756 434.262H451.864L454.019 446.688H512.374L506.756 434.262Z" fill="black"/>
<path d="M585.502 439.72H351.322C347.065 439.8 343.55 436.415 343.47 432.158C343.463 431.818 343.48 431.48 343.518 431.142L358.313 261.921C358.795 257.113 362.799 253.429 367.629 253.343H601.808C606.065 253.263 609.58 256.648 609.661 260.905C609.668 261.244 609.651 261.583 609.612 261.921L594.807 431.152C594.325 435.955 590.326 439.634 585.502 439.72Z" fill="#263238"/>
<path d="M345.105 412.864L343.508 431.154C343.028 435.384 346.067 439.202 350.298 439.683C350.634 439.721 350.974 439.737 351.314 439.732H585.505C590.333 439.646 594.333 435.96 594.811 431.154L596.419 412.864H345.105Z" fill="#407BFF"/>
<path opacity="0.7" d="M345.105 412.864L343.508 431.154C343.028 435.384 346.067 439.202 350.298 439.683C350.634 439.721 350.974 439.737 351.314 439.732H585.505C590.333 439.646 594.333 435.96 594.811 431.154L596.419 412.864H345.105Z" fill="white"/>
<path d="M588.15 407.684H354.27C351.962 407.728 350.055 405.891 350.011 403.583C350.008 403.402 350.016 403.221 350.037 403.042L362.27 263.186C362.536 260.583 364.704 258.589 367.319 258.544H601.199C603.507 258.501 605.414 260.337 605.459 262.646C605.462 262.826 605.454 263.007 605.434 263.186L593.2 403.042C592.934 405.645 590.766 407.639 588.15 407.684Z" fill="#407BFF"/>
<path opacity="0.8" d="M588.15 407.684H354.27C351.962 407.728 350.055 405.891 350.011 403.583C350.008 403.402 350.016 403.221 350.037 403.042L362.27 263.186C362.536 260.583 364.704 258.589 367.319 258.544H601.199C603.507 258.501 605.414 260.337 605.459 262.646C605.462 262.826 605.454 263.007 605.434 263.186L593.2 403.042C592.934 405.645 590.766 407.639 588.15 407.684Z" fill="#407BFF"/>
<path d="M606.987 253.377H601.809C606.066 253.296 609.582 256.681 609.662 260.938C609.669 261.278 609.652 261.616 609.614 261.954L594.809 431.154C594.33 435.96 590.331 439.646 585.503 439.731H590.681C595.508 439.646 599.509 435.96 599.986 431.154L614.791 261.932C615.26 257.7 612.21 253.89 607.978 253.423C607.648 253.385 607.318 253.37 606.987 253.377Z" fill="#407BFF"/>
<path opacity="0.2" d="M606.987 253.377H601.809C606.066 253.296 609.582 256.681 609.662 260.938C609.669 261.278 609.652 261.616 609.614 261.954L594.809 431.154C594.33 435.96 590.331 439.646 585.503 439.731H590.681C595.508 439.646 599.509 435.96 599.986 431.154L614.791 261.932C615.26 257.7 612.21 253.89 607.978 253.423C607.648 253.385 607.318 253.37 606.987 253.377Z" fill="white"/>
<path d="M412.181 406.653H519.472L531.796 265.781H424.506L412.181 406.653Z" fill="#407BFF"/>
<path opacity="0.7" d="M412.181 406.653H519.472L531.796 265.781H424.506L412.181 406.653Z" fill="white"/>
<path d="M450.902 283.944H504.969C505.669 283.944 506.286 283.377 506.347 282.677C506.408 281.977 505.89 281.41 505.19 281.41H451.123C450.423 281.41 449.806 281.977 449.745 282.677C449.683 283.377 450.202 283.944 450.902 283.944Z" fill="#263238"/>
<path d="M432.727 352.866H498.939C499.639 352.866 500.257 352.298 500.317 351.599C500.379 350.899 499.86 350.332 499.16 350.332H432.948C432.249 350.332 431.631 350.899 431.571 351.599C431.51 352.298 432.028 352.866 432.727 352.866Z" fill="#263238"/>
<path d="M432.083 360.228H507.692C508.392 360.228 509.01 359.661 509.07 358.961C509.132 358.261 508.613 357.694 507.913 357.694H432.304C431.604 357.694 430.986 358.261 430.926 358.961C430.866 359.661 431.383 360.228 432.083 360.228Z" fill="#263238"/>
<path d="M431.438 367.592H507.048C507.748 367.592 508.365 367.025 508.426 366.325C508.488 365.625 507.969 365.058 507.269 365.058H431.659C430.96 365.058 430.342 365.625 430.282 366.325C430.221 367.025 430.739 367.592 431.438 367.592Z" fill="#263238"/>
<path d="M430.794 374.954H506.403C507.103 374.954 507.721 374.387 507.781 373.687C507.841 372.987 507.324 372.42 506.624 372.42H431.015C430.315 372.42 429.697 372.987 429.637 373.687C429.577 374.387 430.094 374.954 430.794 374.954Z" fill="#263238"/>
<path d="M430.151 382.319H496.363C497.062 382.319 497.68 381.751 497.74 381.051C497.802 380.352 497.283 379.784 496.584 379.784H430.372C429.672 379.784 429.055 380.352 428.994 381.051C428.932 381.751 429.451 382.319 430.151 382.319Z" fill="#263238"/>
<path d="M429.506 389.682H505.116C505.816 389.682 506.433 389.115 506.494 388.415C506.556 387.715 506.037 387.148 505.337 387.148H429.727C429.028 387.148 428.41 387.715 428.35 388.415C428.288 389.115 428.807 389.682 429.506 389.682Z" fill="#263238"/>
<path d="M428.862 397.045H504.472C505.171 397.045 505.789 396.477 505.849 395.777C505.91 395.078 505.392 394.51 504.693 394.51H429.083C428.383 394.51 427.766 395.078 427.705 395.777C427.645 396.477 428.162 397.045 428.862 397.045Z" fill="#263238"/>
<path d="M456.502 292.358H497.896C498.596 292.358 499.214 291.79 499.274 291.09C499.336 290.391 498.817 289.823 498.117 289.823H456.723C456.023 289.823 455.405 290.391 455.345 291.09C455.285 291.792 455.802 292.358 456.502 292.358Z" fill="#263238"/>
<path d="M462.523 300.773H490.402C491.101 300.773 491.719 300.205 491.779 299.506C491.841 298.806 491.322 298.238 490.623 298.238H462.744C462.044 298.238 461.426 298.806 461.366 299.506C461.306 300.205 461.823 300.773 462.523 300.773Z" fill="#263238"/>
<g opacity="0.4">
<path d="M450.902 283.944H504.969C505.669 283.944 506.286 283.377 506.347 282.677C506.408 281.977 505.89 281.41 505.19 281.41H451.123C450.423 281.41 449.806 281.977 449.745 282.677C449.683 283.377 450.202 283.944 450.902 283.944Z" fill="white"/>
<path d="M432.727 352.866H498.939C499.639 352.866 500.257 352.298 500.317 351.599C500.379 350.899 499.86 350.332 499.16 350.332H432.948C432.249 350.332 431.631 350.899 431.571 351.599C431.51 352.298 432.028 352.866 432.727 352.866Z" fill="white"/>
<path d="M432.083 360.228H507.692C508.392 360.228 509.01 359.661 509.07 358.961C509.132 358.261 508.613 357.694 507.913 357.694H432.304C431.604 357.694 430.986 358.261 430.926 358.961C430.866 359.661 431.383 360.228 432.083 360.228Z" fill="white"/>
<path d="M431.438 367.592H507.048C507.748 367.592 508.365 367.025 508.426 366.325C508.488 365.625 507.969 365.058 507.269 365.058H431.659C430.96 365.058 430.342 365.625 430.282 366.325C430.221 367.025 430.739 367.592 431.438 367.592Z" fill="white"/>
<path d="M430.794 374.954H506.403C507.103 374.954 507.721 374.387 507.781 373.687C507.841 372.987 507.324 372.42 506.624 372.42H431.015C430.315 372.42 429.697 372.987 429.637 373.687C429.577 374.387 430.094 374.954 430.794 374.954Z" fill="white"/>
<path d="M430.151 382.319H496.363C497.062 382.319 497.68 381.751 497.74 381.051C497.802 380.352 497.283 379.784 496.584 379.784H430.372C429.672 379.784 429.055 380.352 428.994 381.051C428.932 381.751 429.451 382.319 430.151 382.319Z" fill="white"/>
<path d="M429.506 389.682H505.116C505.816 389.682 506.433 389.115 506.494 388.415C506.556 387.715 506.037 387.148 505.337 387.148H429.727C429.028 387.148 428.41 387.715 428.35 388.415C428.288 389.115 428.807 389.682 429.506 389.682Z" fill="white"/>
<path d="M428.862 397.045H504.472C505.171 397.045 505.789 396.477 505.849 395.777C505.91 395.078 505.392 394.51 504.693 394.51H429.083C428.383 394.51 427.766 395.078 427.705 395.777C427.645 396.477 428.162 397.045 428.862 397.045Z" fill="white"/>
<path d="M456.502 292.358H497.896C498.596 292.358 499.214 291.79 499.274 291.09C499.336 290.391 498.817 289.823 498.117 289.823H456.723C456.023 289.823 455.405 290.391 455.345 291.09C455.285 291.792 455.802 292.358 456.502 292.358Z" fill="white"/>
<path d="M462.523 300.773H490.402C491.101 300.773 491.719 300.205 491.779 299.506C491.841 298.806 491.322 298.238 490.623 298.238H462.744C462.044 298.238 461.426 298.806 461.366 299.506C461.306 300.205 461.823 300.773 462.523 300.773Z" fill="white"/>
</g>
<path opacity="0.5" d="M432.538 340.547H510.682L513.305 310.556H435.161L432.538 340.547Z" fill="white"/>
<path d="M346.822 495.118H415.348V430.492H346.822V495.118Z" fill="#263238"/>
<path d="M279.972 495.118H348.498V430.492H279.972V495.118Z" fill="#263238"/>
<path d="M346.145 437.074H415.347V428.098H346.145V437.074Z" fill="#263238"/>
<path d="M346.145 431.952H469.905V421.516H346.145V431.952Z" fill="#263238"/>
<path opacity="0.2" d="M279.972 495.118H348.498V430.492H279.972V495.118Z" fill="black"/>
<path opacity="0.2" d="M346.145 437.074H415.347V428.098H346.145V437.074Z" fill="black"/>
<path opacity="0.2" d="M346.145 431.952H469.905V421.516H346.145V431.952Z" fill="black"/>
<path d="M225.411 431.952H349.172V421.516H225.411V431.952Z" fill="#263238"/>
<path d="M225.412 531.667C226.336 531.667 227.086 530.917 227.086 529.993V428.606C227.086 425.614 229.512 423.189 232.503 423.189H347.499C348.423 423.189 349.173 422.439 349.173 421.515C349.173 420.591 348.423 419.841 347.499 419.841H232.503C227.662 419.841 223.738 423.765 223.738 428.606V529.993C223.738 530.919 224.488 531.667 225.412 531.667Z" fill="#407BFF"/>
<path d="M225.049 536.02C231.213 536.02 236.21 544.05 236.21 553.955V566.709H230.67C230.073 566.691 226.69 566.053 226.69 553.84C226.69 553.84 224.811 566.678 227.935 566.709H223.238C223.238 566.709 220.412 566.186 220.412 559.386C220.412 552.586 220.412 549.132 220.412 549.132C220.412 549.132 215.912 566.709 220.412 566.709H213.89V553.955C213.888 544.05 218.885 536.02 225.049 536.02Z" fill="#407BFF"/>
<path d="M221.298 533.341H228.797C229.721 533.341 230.471 532.591 230.471 531.667C230.471 530.743 229.721 529.993 228.797 529.993H221.298C220.373 529.993 219.624 530.743 219.624 531.667C219.624 532.593 220.373 533.341 221.298 533.341Z" fill="#407BFF"/>
<path d="M221.298 536.689H228.797C229.721 536.689 230.471 535.939 230.471 535.015C230.471 534.091 229.721 533.341 228.797 533.341H221.298C220.373 533.341 219.624 534.091 219.624 535.015C219.624 535.941 220.373 536.689 221.298 536.689Z" fill="#407BFF"/>
<path d="M576.694 627.542H271.651V691.154H576.8C574.051 670.047 574.014 648.657 576.694 627.542Z" fill="#407BFF"/>
<path opacity="0.7" d="M576.694 627.542H271.651V691.154H576.8C574.051 670.047 574.014 648.657 576.694 627.542Z" fill="white"/>
<path d="M327.24 694.503H231.365L230.384 693.522C221.149 684.288 216.063 672.009 216.063 658.948C216.063 645.89 221.149 633.611 230.384 624.377L231.365 623.396H327.24L321.523 629.111C313.553 637.081 309.164 647.677 309.164 658.948C309.164 670.219 313.553 680.818 321.523 688.787L327.24 694.503Z" fill="#407BFF"/>
<g opacity="0.3">
<path d="M327.24 694.503H231.365L230.384 693.522C221.149 684.288 216.063 672.009 216.063 658.948C216.063 645.89 221.149 633.611 230.384 624.377L231.365 623.396H327.24L321.523 629.111C313.553 637.081 309.164 647.677 309.164 658.948C309.164 670.219 313.553 680.818 321.523 688.787L327.24 694.503Z" fill="black"/>
</g>
<path d="M579.828 694.503H320.882L320.608 694.228C311.66 685.274 306.051 673.352 305.61 660.701C305.135 646.991 310.254 634.023 319.901 624.377L320.882 623.396H579.828C581.678 623.396 583.176 624.896 583.176 626.744C583.176 628.594 581.678 630.092 579.828 630.092H323.686C316.317 637.941 312.276 648.134 312.276 658.948C312.276 669.764 316.317 679.957 323.686 687.807H579.828C581.678 687.807 583.176 689.305 583.176 691.155C583.176 693.004 581.678 694.503 579.828 694.503Z" fill="#407BFF"/>
<path d="M552.755 651.258H538.109C536.721 651.258 535.598 650.133 535.598 648.747C535.598 647.361 536.721 646.236 538.109 646.236H552.755C554.141 646.236 555.266 647.361 555.266 648.747C555.266 650.133 554.142 651.258 552.755 651.258Z" fill="white"/>
<path d="M518.858 651.258H382.844C381.457 651.258 380.333 650.133 380.333 648.747C380.333 647.361 381.457 646.236 382.844 646.236H518.858C520.244 646.236 521.369 647.361 521.369 648.747C521.369 650.133 520.244 651.258 518.858 651.258Z" fill="white"/>
<path d="M364.431 651.258H334.298C332.912 651.258 331.787 650.133 331.787 648.747C331.787 647.361 332.912 646.236 334.298 646.236H364.431C365.817 646.236 366.942 647.361 366.942 648.747C366.942 650.133 365.817 651.258 364.431 651.258Z" fill="white"/>
<path d="M552.755 672.462H423.858C422.47 672.462 421.347 671.338 421.347 669.951C421.347 668.565 422.47 667.44 423.858 667.44H552.755C554.141 667.44 555.266 668.565 555.266 669.951C555.266 671.338 554.142 672.462 552.755 672.462Z" fill="white"/>
<path d="M405.024 672.462H334.298C332.912 672.462 331.787 671.338 331.787 669.951C331.787 668.565 332.912 667.44 334.298 667.44H405.024C406.41 667.44 407.535 668.565 407.535 669.951C407.535 671.338 406.412 672.462 405.024 672.462Z" fill="white"/>
<path d="M568.607 499.137H294.07V556.387H568.703C566.229 537.391 566.195 518.14 568.607 499.137Z" fill="#407BFF"/>
<path opacity="0.8" d="M568.607 499.137H294.07V556.387H568.703C566.229 537.391 566.195 518.14 568.607 499.137Z" fill="white"/>
<path d="M344.099 559.401H257.811L256.929 558.518C248.617 550.207 244.039 539.157 244.039 527.402C244.039 515.649 248.616 504.597 256.929 496.287L257.811 495.405H344.099L338.955 500.549C331.782 507.723 327.831 517.259 327.831 527.404C327.831 537.548 331.782 547.085 338.955 554.258L344.099 559.401Z" fill="#407BFF"/>
<g opacity="0.2">
<path d="M344.099 559.401H257.811L256.929 558.518C248.617 550.207 244.039 539.157 244.039 527.402C244.039 515.649 248.616 504.597 256.929 496.287L257.811 495.405H344.099L338.955 500.549C331.782 507.723 327.831 517.259 327.831 527.404C327.831 537.548 331.782 547.085 338.955 554.258L344.099 559.401Z" fill="white"/>
</g>
<path d="M571.428 559.401H338.375L338.129 559.153C330.077 551.094 325.027 540.364 324.632 528.979C324.203 516.64 328.812 504.969 337.493 496.287L338.375 495.405H571.426C573.09 495.405 574.44 496.754 574.44 498.418C574.44 500.082 573.09 501.432 571.426 501.432H340.9C334.267 508.496 330.632 517.669 330.632 527.402C330.632 537.136 334.269 546.31 340.9 553.374H571.428C573.092 553.374 574.441 554.723 574.441 556.387C574.441 558.051 573.092 559.401 571.428 559.401Z" fill="#407BFF"/>
<g opacity="0.4">
<path d="M571.428 559.401H338.375L338.129 559.153C330.077 551.094 325.027 540.364 324.632 528.979C324.203 516.64 328.812 504.969 337.493 496.287L338.375 495.405H571.426C573.09 495.405 574.44 496.754 574.44 498.418C574.44 500.082 573.09 501.432 571.426 501.432H340.9C334.267 508.496 330.632 517.669 330.632 527.402C330.632 537.136 334.269 546.31 340.9 553.374H571.428C573.092 553.374 574.441 554.723 574.441 556.387C574.441 558.051 573.092 559.401 571.428 559.401Z" fill="white"/>
</g>
<path d="M547.062 520.478H533.879C532.63 520.478 531.619 519.467 531.619 518.218C531.619 516.971 532.63 515.958 533.879 515.958H547.062C548.311 515.958 549.322 516.971 549.322 518.218C549.322 519.467 548.311 520.478 547.062 520.478Z" fill="white"/>
<path d="M516.553 520.478H394.14C392.891 520.478 391.88 519.467 391.88 518.218C391.88 516.971 392.891 515.958 394.14 515.958H516.553C517.802 515.958 518.813 516.971 518.813 518.218C518.813 519.467 517.802 520.478 516.553 520.478Z" fill="white"/>
<path d="M377.569 520.478H350.45C349.202 520.478 348.19 519.467 348.19 518.218C348.19 516.971 349.202 515.958 350.45 515.958H377.569C378.818 515.958 379.829 516.971 379.829 518.218C379.831 519.467 378.818 520.478 377.569 520.478Z" fill="white"/>
<path d="M547.062 539.564H431.053C429.805 539.564 428.793 538.553 428.793 537.304C428.793 536.057 429.805 535.044 431.053 535.044H547.062C548.31 535.044 549.321 536.057 549.321 537.304C549.321 538.551 548.31 539.564 547.062 539.564Z" fill="white"/>
<path d="M414.104 539.564H350.45C349.202 539.564 348.19 538.553 348.19 537.304C348.19 536.057 349.202 535.044 350.45 535.044H414.104C415.353 535.044 416.364 536.057 416.364 537.304C416.364 538.551 415.353 539.564 414.104 539.564Z" fill="white"/>
<path d="M578.275 563.132H303.737V620.383H578.37C575.896 601.386 575.862 582.135 578.275 563.132Z" fill="#407BFF"/>
<path opacity="0.7" d="M578.275 563.132H303.737V620.383H578.37C575.896 601.386 575.862 582.135 578.275 563.132Z" fill="white"/>
<path d="M353.766 623.396H267.478L266.596 622.514C258.284 614.202 253.706 603.152 253.706 591.397C253.706 579.644 258.283 568.592 266.596 560.283L267.478 559.4H353.766L348.622 564.545C341.449 571.718 337.498 581.254 337.498 591.399C337.498 601.543 341.449 611.08 348.622 618.253L353.766 623.396Z" fill="#407BFF"/>
<path d="M581.095 623.396H348.042L347.796 623.15C339.744 615.091 334.694 604.361 334.299 592.974C333.87 580.635 338.477 568.964 347.16 560.283L348.042 559.4H581.095C582.759 559.4 584.108 560.75 584.108 562.414C584.108 564.078 582.759 565.427 581.095 565.427H350.567C343.934 572.491 340.299 581.665 340.299 591.397C340.299 601.132 343.936 610.305 350.567 617.369H581.095C582.759 617.369 584.108 618.719 584.108 620.383C584.108 622.046 582.759 623.396 581.095 623.396Z" fill="#407BFF"/>
<g opacity="0.3">
<path d="M581.095 623.396H348.042L347.796 623.15C339.744 615.091 334.694 604.361 334.299 592.974C333.87 580.635 338.477 568.964 347.16 560.283L348.042 559.4H581.095C582.759 559.4 584.108 560.75 584.108 562.414C584.108 564.078 582.759 565.427 581.095 565.427H350.567C343.934 572.491 340.299 581.665 340.299 591.397C340.299 601.132 343.936 610.305 350.567 617.369H581.095C582.759 617.369 584.108 618.719 584.108 620.383C584.108 622.046 582.759 623.396 581.095 623.396Z" fill="white"/>
</g>
<path d="M360.117 599.039H373.3C374.549 599.039 375.56 600.05 375.56 601.299C375.56 602.548 374.549 603.559 373.3 603.559H360.117C358.869 603.559 357.857 602.548 357.857 601.299C357.857 600.05 358.87 599.039 360.117 599.039Z" fill="white"/>
<path d="M390.626 599.039H513.039C514.288 599.039 515.299 600.05 515.299 601.299C515.299 602.548 514.288 603.559 513.039 603.559H390.626C389.377 603.559 388.366 602.548 388.366 601.299C388.366 600.05 389.377 599.039 390.626 599.039Z" fill="white"/>
<path d="M529.61 599.039H556.729C557.978 599.039 558.989 600.05 558.989 601.299C558.989 602.548 557.978 603.559 556.729 603.559H529.61C528.361 603.559 527.35 602.548 527.35 601.299C527.35 600.05 528.361 599.039 529.61 599.039Z" fill="white"/>
<path d="M360.117 579.956H476.126C477.374 579.956 478.385 580.967 478.385 582.215C478.385 583.464 477.374 584.475 476.126 584.475H360.117C358.869 584.475 357.857 583.464 357.857 582.215C357.857 580.967 358.87 579.956 360.117 579.956Z" fill="white"/>
<path d="M493.075 579.956H556.729C557.977 579.956 558.989 580.967 558.989 582.215C558.989 583.464 557.977 584.475 556.729 584.475H493.075C491.828 584.475 490.815 583.464 490.815 582.215C490.815 580.967 491.828 579.956 493.075 579.956Z" fill="white"/>
<path d="M531.344 477.155C531.554 470.068 540.379 467.525 540.379 467.525C540.379 467.525 540.14 466.84 539.842 465.869C539.842 465.869 540.655 466.875 545.155 464.783C549.655 462.69 551.223 461.905 551.223 461.905C551.223 461.905 547.13 462.632 542.848 464.527C540.784 465.439 539.535 464.232 539.14 463.343C538.795 462.567 538.253 458.191 540.379 460.179C544.182 463.737 566.236 450.345 573.682 458.924C580.952 467.301 567.754 469.746 567.754 469.746C554.571 473.454 546.62 483.825 543.111 489.474C541.678 491.781 540.166 490.044 539.88 489.287C538.971 486.88 539.527 485.708 544.433 480.058C544.433 480.058 541.569 481.423 538.799 486.918C538.034 485.238 537.259 484.012 536.157 485.708C534.902 487.638 533.536 487.566 532.869 486.029C532.729 485.706 532.243 483.07 536.576 477.86C536.576 477.86 533.293 478.632 531.81 483.068C531.457 481.399 531.279 479.347 531.344 477.155Z" fill="#263238"/>
<path d="M571.281 468.697C571.281 468.697 573.186 460.876 561.468 464.771C549.693 468.687 556.822 473.314 556.822 473.314L571.281 468.697Z" fill="#407BFF"/>
<path opacity="0.2" d="M571.281 468.697C571.281 468.697 573.186 460.876 561.468 464.771C549.693 468.687 556.822 473.314 556.822 473.314L571.281 468.697Z" fill="black"/>
<path d="M574.601 471.963C574.601 471.963 576.902 462.511 562.744 467.22C548.515 471.951 557.131 477.544 557.131 477.544L574.601 471.963Z" fill="#407BFF"/>
<path d="M569.47 531.773C569.47 531.773 573.54 521.939 553.599 518.172C533.658 514.406 529.843 518.909 535.684 526.202L543.749 531.773L560.129 537.187L567.14 534.16L569.47 531.773Z" fill="#263238"/>
<path opacity="0.2" d="M569.47 531.773C569.47 531.773 573.54 521.939 553.599 518.172C533.658 514.406 529.843 518.909 535.684 526.202L543.749 531.773L560.129 537.187L567.14 534.16L569.47 531.773Z" fill="black"/>
<path d="M498.733 598.522C468.032 669.332 507.003 696.97 555.566 695.313C604.128 693.655 691.896 666.62 679.743 632.688C669.983 605.402 590.418 617.539 565.593 623.314L553.088 603.51L498.733 598.522Z" fill="#407BFF"/>
<path opacity="0.2" d="M498.733 598.522C468.032 669.332 507.003 696.97 555.566 695.313C604.128 693.655 691.896 666.62 679.743 632.688C669.983 605.402 590.418 617.539 565.593 623.314L553.088 603.51L498.733 598.522Z" fill="black"/>
<path d="M616.984 678.255L594.285 683.093L584.994 685.068L582.533 674.572L592.125 671.157L612.113 664.042L616.984 678.255Z" fill="#EEC1BB"/>
<path opacity="0.2" d="M616.985 678.255L594.285 683.093L592.126 671.157L612.114 664.042L616.985 678.255Z" fill="black"/>
<path d="M593.214 669.131L599.726 665.532L603.576 685.302L597.834 684.884L593.214 669.131Z" fill="#407BFF"/>
<path opacity="0.3" d="M593.214 669.131L599.726 665.532L603.576 685.302L597.834 684.884L593.214 669.131Z" fill="white"/>
<path opacity="0.1" d="M565.61 623.314C565.61 623.314 669.934 608.164 664.744 627.549C660.777 642.347 617.671 660.142 617.671 660.142C577.495 640.506 544.4 641.242 544.4 641.242L565.61 623.314Z" fill="black"/>
<path d="M501.512 579.522C504.257 562.699 508.894 539.263 514.72 529.219C515.609 527.443 516.941 525.928 518.587 524.816C518.587 524.816 520.931 524.615 524.982 524.615H525.283C539.425 524.756 553.456 527.118 566.865 531.613C571.52 533.174 576.072 535.031 580.491 537.17C580.491 537.17 574.716 572.14 568.171 579.02C561.625 585.9 553.105 603.544 553.105 603.544L498.75 598.522C498.75 598.522 499.721 590.403 501.512 579.522Z" fill="#263238"/>
<path d="M562.529 521.116C563.456 518.928 564.536 516.809 565.76 514.772L551.263 505.632C551.357 506.964 551.357 508.3 551.263 509.633C550.945 514.655 549.187 523.293 541.437 526.373C541.437 526.373 544.801 539.212 555.465 540.3C556.039 540.356 556.616 540.337 557.187 540.249C560.94 539.658 563.505 536.137 562.916 532.382C562.916 532.382 560.991 531.529 560.89 528.181C560.952 525.74 561.511 523.336 562.529 521.116Z" fill="#EEC1BB"/>
<path opacity="0.2" d="M549.455 506.101C549.686 507.411 549.82 508.737 549.857 510.068L549.941 510.168C549.941 510.168 553.171 528.181 561.324 527.545C561.136 525.109 561.443 522.66 562.228 520.346C562.932 518.058 563.795 515.822 564.806 513.65L549.455 506.101Z" fill="black"/>
<path d="M561.106 526.205C577.383 532.784 585.346 523.761 589.564 505.347C592.946 490.583 590.719 481.694 576.691 477.425C553.406 470.327 538.859 513.701 561.106 526.205Z" fill="#EEC1BB"/>
<path d="M578.407 513.655C579.772 514.303 581.382 514.129 582.576 513.203C581.533 510.949 580.763 508.577 580.282 506.139L578.407 513.655Z" fill="#D58745"/>
<path d="M572.222 500.978C572.513 499.96 573.208 499.301 573.889 499.299C573.881 499.287 573.871 499.284 573.862 499.27L576.658 498.986C576.658 498.986 575.704 499.89 574.813 499.85C575.116 500.332 575.226 501.038 575.017 501.798C574.682 502.953 573.795 503.723 573.025 503.472C572.255 503.221 571.887 502.15 572.222 500.978Z" fill="#263238"/>
<path d="M585.027 504.778C585.31 503.749 586.059 503.031 586.763 503.062L589.48 502.786C589.48 502.786 588.521 503.68 587.632 503.643C587.935 504.122 588.042 504.827 587.821 505.598C587.503 506.754 586.616 507.524 585.846 507.272C585.078 507.021 584.709 505.933 585.027 504.778Z" fill="#263238"/>
<path d="M571.554 493.564C571.532 493.231 571.785 492.945 572.117 492.923C574.693 492.968 577.098 494.22 578.612 496.304C578.807 496.577 578.744 496.956 578.471 497.151C578.198 497.347 577.82 497.284 577.624 497.011C576.345 495.275 574.348 494.215 572.194 494.128C572.075 494.135 571.956 494.108 571.854 494.048C571.676 493.952 571.561 493.768 571.554 493.564Z" fill="#263238"/>
<path d="M590.945 500.002C589.39 498.904 587.411 498.593 585.593 499.162C585.282 499.277 584.934 499.132 584.795 498.83V498.829C584.664 498.522 584.805 498.169 585.111 498.037C587.287 497.332 589.67 497.672 591.561 498.956C591.573 498.963 591.586 498.969 591.598 498.978C591.871 499.152 591.951 499.513 591.777 499.786C591.71 499.91 591.596 500.004 591.461 500.044C591.29 500.108 591.102 500.091 590.945 500.002Z" fill="#263238"/>
<path d="M550.979 512.981C541.738 498.668 552.385 463.363 576.323 471.281C600.261 479.199 589.899 503.405 589.899 503.405C594.076 486.871 587.179 484.385 579.116 482.248C573.603 480.786 567.734 483.203 564.997 488.207C561.46 494.674 554.16 496.375 554.16 496.375C547.916 502.351 551.046 512.981 550.979 512.981Z" fill="#263238"/>
<path d="M574.567 517.316C572.244 517.333 570.26 515.644 569.905 513.349C569.887 513.15 570.029 512.972 570.228 512.945C570.426 512.922 570.605 513.061 570.631 513.257C570.913 515.21 572.617 516.642 574.589 516.58C574.746 516.606 574.868 516.729 574.895 516.886C574.929 517.089 574.791 517.281 574.589 517.315H574.567V517.316Z" fill="#2E353A"/>
<path d="M573.31 561.092C573.31 561.092 578.08 593.048 581.278 599.192C584.475 605.335 604.563 625.976 604.563 625.976L609.92 623.197C609.92 623.197 591.037 599.594 589.698 595.174C588.359 590.755 584.241 553.676 584.241 553.676L573.31 561.092Z" fill="#EEC1BB"/>
<path d="M570.067 558.452L572.523 544.536L580.458 537.187C586.389 540.332 587.475 558.688 587.723 566.147C587.937 572.629 588.093 587.497 590.644 594.024C593.52 601.383 608.988 619.762 608.988 619.762L601.664 624.993C601.664 624.993 583.295 609.509 578.042 597.582C572.788 585.654 570.067 558.452 570.067 558.452Z" fill="#263238"/>
<path d="M583.82 687.451C583.899 687.346 584.029 687.294 584.158 687.318C584.29 687.324 584.406 687.411 584.449 687.537C584.491 687.687 586.209 692.807 585.163 694.859C584.948 695.225 584.608 695.498 584.205 695.631C583.75 695.833 583.216 695.736 582.861 695.383C582.297 694.114 582.218 692.684 582.64 691.362C582.919 690.026 583.314 688.719 583.82 687.451ZM584.786 693.91C584.871 692.088 584.613 690.267 584.029 688.54C583.237 690.9 582.601 694.164 583.318 694.939C583.402 695.055 583.584 695.187 584.001 695.021C584.255 694.941 584.459 694.752 584.557 694.502C584.645 694.317 584.711 694.122 584.754 693.921L584.786 693.91Z" fill="#407BFF"/>
<path d="M583.88 687.371C583.952 687.279 584.069 687.232 584.185 687.251C584.335 687.302 587.767 688.357 588.788 690.275C589.086 690.825 589.148 691.471 588.961 692.067C588.711 692.89 588.231 693.083 587.861 693.043C586.408 692.987 584.23 689.335 583.85 687.626L583.805 687.513C583.818 687.46 583.845 687.411 583.88 687.371ZM588.412 691.708C588.497 691.32 588.435 690.915 588.237 690.568C587.312 689.375 586.041 688.496 584.598 688.054C585.211 689.782 587.024 692.334 587.916 692.427C588.01 692.427 588.234 692.43 588.39 691.886L588.412 691.708Z" fill="#407BFF"/>
<path d="M584.165 689.305C579.61 692.582 576.332 692.992 572.9 703.077C572.14 705.238 566.313 703.109 567.458 697.8C569.36 689.012 569.872 691.096 571.392 683.595C572.748 677.274 573.382 672.689 574.318 667.558L574.509 667.148C574.511 667.143 574.512 667.139 574.516 667.134C574.943 666.155 576.084 665.706 577.064 666.133L588.09 671.05C588.586 671.276 588.86 671.813 588.755 672.347L585.897 686.497C585.681 687.612 585.065 688.612 584.165 689.305Z" fill="#263238"/>
<path d="M628.602 671.96L650.799 678.723L659.905 681.486L656.959 691.864L646.915 690.207L625.99 686.775L628.602 671.96Z" fill="#EEC1BB"/>
<path opacity="0.2" d="M628.602 671.96L650.799 678.723L646.915 690.207L625.99 686.775L628.602 671.96Z" fill="black"/>
<path d="M643.886 689.789C596.93 685.738 543.245 668.412 543.245 668.412C543.245 668.412 534.607 659.941 532.397 666.018C530.187 672.095 545.471 693.672 545.471 693.672C545.471 693.672 523.039 689.655 510.886 673.467C498.733 657.28 503.035 631.299 532.431 629.943C561.826 628.587 647.2 676.547 647.2 676.547L643.886 689.789Z" fill="#407BFF"/>
<path d="M644.99 691.044H637.541L643.752 671.994L648.573 675.242L644.99 691.044Z" fill="#407BFF"/>
<path opacity="0.3" d="M644.99 691.044H637.541L643.752 671.994L648.573 675.242L644.99 691.044Z" fill="white"/>
<path d="M662.021 678.615C661.928 678.705 661.79 678.737 661.666 678.694C661.538 678.665 661.437 678.561 661.414 678.431C661.397 678.275 660.515 672.948 661.871 671.089C662.14 670.762 662.52 670.544 662.939 670.479C663.421 670.352 663.933 670.533 664.226 670.936C664.581 672.277 664.432 673.703 663.806 674.942C663.319 676.216 662.721 677.445 662.021 678.615ZM662.093 672.085C661.72 673.869 661.685 675.709 661.988 677.507C663.145 675.302 664.291 672.18 663.707 671.301C663.643 671.174 663.484 671.015 663.046 671.112C662.781 671.15 662.55 671.306 662.415 671.535C662.298 671.705 662.202 671.885 662.128 672.078L662.093 672.085Z" fill="#407BFF"/>
<path d="M661.948 678.683C661.861 678.762 661.739 678.791 661.629 678.755C661.488 678.68 658.267 677.095 657.564 675.039C657.356 674.45 657.398 673.802 657.678 673.243C658.054 672.47 658.56 672.356 658.918 672.455C660.345 672.739 661.913 676.693 662.019 678.439L662.045 678.558C662.024 678.607 661.99 678.65 661.948 678.683ZM658.165 673.683C658.019 674.053 658.016 674.463 658.155 674.837C658.878 676.162 659.995 677.23 661.349 677.897C661.019 676.094 659.633 673.287 658.768 673.054C658.676 673.039 658.455 672.999 658.215 673.513L658.165 673.683Z" fill="#407BFF"/>
<path d="M661.975 676.732C666.992 674.219 670.293 674.334 675.283 664.923C676.376 662.909 681.793 665.938 679.82 670.996C676.547 679.371 676.373 677.232 673.681 684.398C671.337 690.425 669.985 694.849 668.246 699.767L667.993 700.142C667.989 700.147 667.988 700.151 667.984 700.156C667.407 701.055 666.21 701.316 665.309 700.738L655.203 694.133C654.75 693.83 654.564 693.257 654.753 692.745L659.822 679.227C660.21 678.159 660.975 677.272 661.975 676.732Z" fill="#263238"/>
<path opacity="0.2" d="M515.612 600.08C514.489 598.321 513.223 596.041 511.825 593.048C508.179 585.235 507.019 566.294 506.661 553.101C508.044 547.254 509.577 541.715 511.246 537.073L520.753 532.786L525.217 540.334L527.976 546.211C527.976 546.211 530.87 581.583 538.087 589.827C542.756 595.161 547.428 600.3 550.153 603.273L515.612 600.08Z" fill="black"/>
<path d="M564.387 624.586C564.387 624.586 532.766 594.956 529.752 586.938C526.739 578.919 524.965 543.146 524.965 543.146L510.568 550.06C510.568 550.06 519.123 593.517 521.784 597.785C525.383 603.577 558.093 627.8 558.093 627.8L564.387 624.586Z" fill="#EEC1BB"/>
<path d="M518.57 524.833C529.752 522.087 527.722 549.049 528.078 557.727C528.358 564.516 529.731 579.869 532.891 586.632C537.49 596.475 560.614 619.869 560.614 619.869L554.75 626.423C554.75 626.423 524.193 604.987 519.218 597.374C515.255 591.304 496.557 530.24 518.57 524.833Z" fill="#263238"/>
<path opacity="0.2" d="M577.156 553.914C577.212 560.896 577.088 577.874 574.829 587.471C573.616 582.505 572.633 577.06 571.88 572.236C573.894 567.096 575.713 560.221 577.156 553.914Z" fill="black"/>
<path d="M555.556 494.324C555.556 494.324 561.559 496.79 556.989 503.519C556.989 503.519 558.554 498.487 555.556 494.324Z" fill="#263238"/>
<path d="M555.192 548.406C555.192 548.406 574.903 531.86 568.005 529.033C561.106 526.205 551.826 541.288 555.192 548.406Z" fill="#263238"/>
<path opacity="0.2" d="M535.96 531.39C533.74 528.467 532.113 526.329 530.944 524.797C534.128 524.963 537.304 525.246 540.464 525.636L546.422 532.786L551.165 540.334L553.599 543.148V546.867C553.599 546.867 541.68 538.923 535.96 531.39Z" fill="black"/>
<path d="M555.218 549.415C555.218 549.415 555.301 522.757 537.925 519.186C520.549 515.616 555.849 547.035 555.218 549.415Z" fill="#263238"/>
<path d="M590.955 491.066V490.782C593.473 490.638 598.89 490.934 598.352 496.268C597.654 503.186 592.214 512.114 595.703 516.021C595.703 516.021 590.319 513.883 594.029 498.723C595.42 493.038 592.678 491.49 590.955 491.066Z" fill="#263238"/>
<path d="M551.514 505.28C541.353 499.84 546.157 491.554 550.644 492.407C550.647 492.407 550.652 492.409 550.652 492.409C554.112 493.164 556.303 496.581 555.548 500.041C554.31 504.812 552.971 506.067 551.514 505.28Z" fill="#EEC1BB"/>
<path d="M567.792 501.904L553.142 493.568L553.615 492.151L568.37 500.548L577.788 503.975L582.694 505.676L590.781 508.317L590.286 510.739C589.924 512.512 588.528 513.567 587.167 513.095L584.037 512.01C582.676 511.538 581.867 509.72 582.229 507.947L582.388 507.169L577.482 505.468L577.323 506.246C576.961 508.019 575.565 509.074 574.204 508.602L569.399 506.936C568.039 506.464 567.23 504.646 567.592 502.873L567.792 501.904Z" fill="#263238"/>
<g opacity="0.4">
<path d="M576.7 507.671C576.079 508.52 575.138 508.923 574.207 508.6L569.403 506.935C568.596 506.655 567.99 505.895 567.7 504.958C571.452 504.981 574.733 506.054 576.7 507.671Z" fill="black"/>
<path d="M589.685 512.134C589.064 513.003 588.113 513.42 587.171 513.093L584.04 512.008C583.137 511.695 582.485 510.781 582.251 509.687C585.293 509.909 587.941 510.822 589.685 512.134Z" fill="black"/>
</g>
<path d="M610.388 621.694L622.124 620.311C622.72 620.241 623.313 620.467 623.709 620.915L629.761 627.745C630.528 628.611 630.312 629.96 629.312 630.542L627.556 631.567C627.118 631.823 626.595 631.885 626.108 631.739L615.711 628.636C615.639 628.614 615.567 628.597 615.493 628.586L605.275 626.851C604.149 626.66 603.471 625.495 603.859 624.422C604.055 623.88 604.495 623.461 605.046 623.294L610.066 621.761C610.172 621.729 610.279 621.705 610.388 621.694Z" fill="#EEC1BB"/>
<path d="M563.471 623.434L575.207 622.052C575.803 621.981 576.395 622.207 576.792 622.656L582.842 629.486C583.609 630.351 583.393 631.701 582.393 632.283L580.637 633.308C580.199 633.564 579.675 633.626 579.189 633.48L568.792 630.376C568.72 630.355 568.648 630.338 568.574 630.326L558.356 628.592C557.23 628.401 556.552 627.238 556.94 626.163C557.136 625.621 557.576 625.202 558.127 625.035L563.147 623.501C563.255 623.471 563.362 623.448 563.471 623.434Z" fill="#EEC1BB"/>
<path d="M594.446 635.723H623.324V631.088H594.446V635.723Z" fill="#263238"/>
<path d="M560.206 635.725H596.838V631.089H557.928V633.445C557.928 634.704 558.947 635.725 560.206 635.725Z" fill="#263238"/>
<path opacity="0.3" d="M560.206 635.725H596.838V631.089H557.928V633.445C557.928 634.704 558.947 635.725 560.206 635.725Z" fill="white"/>
<path d="M586.364 634.229H591.003V632.583H586.364V634.229Z" fill="#263238"/>
<path d="M579.138 634.229H583.776V632.583H579.138V634.229Z" fill="#263238"/>
<path d="M602.349 631.09H599.266L611.328 589.186H614.41L602.349 631.09Z" fill="#263238"/>
<path opacity="0.3" d="M602.349 631.09H599.266L611.328 589.186H614.41L602.349 631.09Z" fill="white"/>
<path d="M601.212 631.09H655.401L667.464 589.186H613.273L601.212 631.09Z" fill="#263238"/>
<path opacity="0.6" d="M601.212 631.09H655.401L667.464 589.186H613.273L601.212 631.09Z" fill="white"/>
<path d="M598.559 631.089C599.151 631.089 654.375 631.089 654.968 631.089C655.918 631.089 656.688 632.127 656.688 633.408C656.688 634.688 655.918 635.726 654.968 635.726C654.018 635.726 599.508 635.726 598.559 635.726C597.608 635.726 596.838 634.688 596.838 633.408C596.838 632.126 597.61 631.089 598.559 631.089Z" fill="#263238"/>
<path opacity="0.5" d="M598.559 631.089C599.151 631.089 654.375 631.089 654.968 631.089C655.918 631.089 656.688 632.127 656.688 633.408C656.688 634.688 655.918 635.726 654.968 635.726C654.018 635.726 599.508 635.726 598.559 635.726C597.608 635.726 596.838 634.688 596.838 633.408C596.838 632.126 597.61 631.089 598.559 631.089Z" fill="white"/>
<path d="M598.559 635.725C599.509 635.725 600.28 634.687 600.28 633.406C600.28 632.126 599.509 631.088 598.559 631.088C597.608 631.088 596.838 632.126 596.838 633.406C596.838 634.687 597.608 635.725 598.559 635.725Z" fill="#263238"/>
<path opacity="0.3" d="M598.559 635.725C599.509 635.725 600.28 634.687 600.28 633.406C600.28 632.126 599.509 631.088 598.559 631.088C597.608 631.088 596.838 632.126 596.838 633.406C596.838 634.687 597.608 635.725 598.559 635.725Z" fill="white"/>
<path opacity="0.6" d="M632.747 612.997H640.141L641.787 607.279H634.393L632.747 612.997Z" fill="white"/>
</svg>
